<?xml version="1.0" encoding="UTF-8"?>
<svg version="1.1" xmlns="http://www.w3.org/2000/svg" width="512" height="512">
<path d="M0 0 C2.77459143 1.42130952 5.41428847 2.97708179 8.06982422 4.60986328 C9.06199951 5.19525879 10.0541748 5.7806543 11.07641602 6.38378906 C13.16488887 7.61767031 15.24809084 8.86051268 17.32617188 10.11181641 C21.29568964 12.49588876 25.29833622 14.8202958 29.30322266 17.14428711 C32.30099933 18.88522733 35.2932772 20.63532019 38.28466797 22.38720703 C47.8842466 28.00165004 57.52618373 33.54286648 67.16259766 39.09375 C72.59142364 42.22166476 78.01801703 45.35344776 83.44482422 48.48486328 C85.61148005 49.73488207 87.77814672 50.98488207 89.94482422 52.23486328 C109.44482422 63.48486328 109.44482422 63.48486328 128.94482422 74.73486328 C130.01861328 75.35433838 131.09240234 75.97381348 132.19873047 76.61206055 C134.35244142 77.85462347 136.50608788 79.09729817 138.65966797 80.34008789 C143.68166684 83.23800951 148.70425229 86.13489677 153.72924805 89.02761841 C155.49527944 90.04433526 157.26109853 91.06141986 159.02685547 92.07861328 C161.23216577 93.34887201 163.43786638 94.61845346 165.64404297 95.88720703 C168.58156284 97.57976009 171.51419853 99.28040592 174.44482422 100.98486328 C175.38898193 101.52965332 176.33313965 102.07444336 177.3059082 102.63574219 C178.19608643 103.15700684 179.08626465 103.67827148 180.00341797 104.21533203 C180.78773193 104.67190186 181.5720459 105.12847168 182.38012695 105.59887695 C186.00046899 108.02913375 188.48898243 111.07317971 190.44482422 114.98486328 C190.53431839 116.43523435 190.56240861 117.88964957 190.55834961 119.34277344 C190.55827408 120.24355621 190.55819855 121.14433899 190.55812073 122.07241821 C190.55295944 123.04641571 190.54779816 124.02041321 190.54248047 125.02392578 C190.54035805 126.51791397 190.54035805 126.51791397 190.53819275 128.04208374 C190.53258358 131.23137381 190.52002951 134.42059434 190.50732422 137.60986328 C190.5023104 139.76871644 190.49774729 141.92757069 190.49365234 144.08642578 C190.48261117 149.38592878 190.46586409 154.68539106 190.44482422 159.98486328 C191.03106567 160.02650604 191.61730713 160.0681488 192.22131348 160.11105347 C197.01993278 160.53266349 200.67707759 161.17073376 204.91357422 163.61767578 C205.88504395 164.16939453 206.85651367 164.72111328 207.85742188 165.28955078 C208.87626465 165.89025391 209.89510742 166.49095703 210.94482422 167.10986328 C212.55623291 168.03798828 212.55623291 168.03798828 214.20019531 168.98486328 C217.04475495 170.63086555 219.87987326 172.29159045 222.70983887 173.96252441 C224.44714959 174.98623351 226.18805323 176.00354722 227.93017578 177.01904297 C231.31766299 178.99484887 234.69515362 180.98723073 238.06982422 182.98486328 C239.10558594 183.59475098 240.14134766 184.20463867 241.20849609 184.83300781 C257.3835538 194.5332443 267.05677208 207.83605247 271.74169922 226.24658203 C271.95204803 227.05926544 272.16239685 227.87194885 272.37911987 228.70925903 C275.61395299 241.36719271 278.46929497 254.12320124 281.36621094 266.86181641 C282.13724367 270.24581976 282.91908827 273.62717681 283.70263672 277.00830078 C284.04961105 278.55352921 284.04961105 278.55352921 284.40359497 280.12997437 C285.93973804 286.7124279 287.68315661 291.57843327 292.69482422 296.29736328 C295.79386833 299.31229972 298.69073863 302.42122244 301.49560547 305.71142578 C302.92325634 307.37654163 304.38393882 309.01348962 305.86279297 310.63330078 C318.81362405 325.24951861 323.94728739 341.78208766 323.84326172 361.29345703 C323.8461319 362.50381119 323.84900208 363.71416534 323.85195923 364.9611969 C323.85398446 367.49472528 323.84856371 370.02826985 323.8359375 372.56176758 C323.81976365 376.43687605 323.83589021 380.31095716 323.85498047 384.18603516 C323.85299968 386.65934474 323.84915943 389.13265369 323.84326172 391.60595703 C323.84933441 392.75913925 323.8554071 393.91232147 323.86166382 395.10044861 C323.77160727 405.37365676 323.77160727 405.37365676 320.44482422 409.98486328 C318.49731445 411.62133789 318.49731445 411.62133789 316.25341797 412.88720703 C314.98062988 413.62173096 314.98062988 413.62173096 313.68212891 414.37109375 C312.75819336 414.8830127 311.83425781 415.39493164 310.88232422 415.92236328 C309.91069336 416.47811035 308.9390625 417.03385742 307.93798828 417.60644531 C305.85326582 418.79776258 303.76474869 419.98245941 301.67285156 421.16113281 C297.40528902 423.57216686 293.16625415 426.03116705 288.92553711 428.48901367 C285.64875123 430.38654335 282.36780363 432.27667171 279.08544922 434.16455078 C272.5351353 437.93203903 265.98955722 441.70769062 259.44482422 445.48486328 C257.27817924 446.73490087 255.11151256 447.98490084 252.94482422 449.23486328 C251.87232422 449.85361328 250.79982422 450.47236328 249.69482422 451.10986328 C246.44482422 452.98486328 243.19482422 454.85986328 239.94482422 456.73486328 C238.87135742 457.35417725 237.79789062 457.97349121 236.69189453 458.61157227 C234.53501519 459.85591326 232.3781143 461.10021692 230.22119141 462.34448242 C223.50700378 466.2177789 216.79328252 470.09187963 210.08129883 473.96899414 C207.85184795 475.25497471 205.62092632 476.53840942 203.38842773 477.8190918 C198.89864964 480.39637154 194.41945818 482.97595511 190.01904297 485.70361328 C189.38772461 486.08783447 188.75640625 486.47205566 188.10595703 486.86791992 C186.55245908 487.81828219 185.01147807 488.78903246 183.47216797 489.76220703 C180.43048669 490.99065379 179.4948056 491.00075514 176.38623047 490.72705078 C169.48205518 490.486535 164.11478967 494.67323558 158.44482422 498.17236328 C156.19506119 499.52041509 153.9450656 500.86807887 151.69482422 502.21533203 C147.26956711 504.88252064 147.26956711 504.88252064 142.85473633 507.56689453 C136.25437324 511.45640661 131.0839139 512.08683465 123.44482422 510.98486328 C111.07678062 507.64512451 101.71589679 495.61472099 95.47387695 484.99536133 C90.30532788 475.56344865 84.46034209 462.24346565 85.93701172 451.35595703 C86.38296219 446.7735884 86.62515641 443.13278797 84.44482422 438.98486328 C78.88821532 433.81107765 71.48513151 430.8466531 64.70849609 427.60009766 C59.5255778 425.03500285 54.59587311 422.07130842 49.63232422 419.10986328 C47.62435672 417.93212413 45.61522733 416.75636387 43.60498047 415.58251953 C42.59580566 414.99229004 41.58663086 414.40206055 40.546875 413.79394531 C31.98827103 408.80266124 23.39577227 403.8696108 14.81054688 398.92431641 C11.29589171 396.8990429 7.78226953 394.87198849 4.26904297 392.84423828 C3.67889404 392.50363876 3.08874512 392.16303925 2.48071289 391.81211853 C-0.35210335 390.17716421 -3.18486578 388.54211674 -6.01757812 386.90698242 C-8.00224213 385.76176617 -9.98906346 384.62027642 -11.97851562 383.48339844 C-13.55870833 382.56438926 -15.12554192 381.62127959 -16.66699219 380.63867188 C-20.01579577 378.48915443 -20.01579577 378.48915443 -23.87670898 378.18798828 C-27.06994614 379.13801345 -29.61067925 380.53642002 -32.48486328 382.22314453 C-33.61021484 382.87863281 -34.73556641 383.53412109 -35.89501953 384.20947266 C-37.07352254 384.90523705 -38.25190713 385.60120208 -39.43017578 386.29736328 C-40.6003628 386.98226782 -41.77093261 387.66651879 -42.94189453 388.35009766 C-44.63378906 389.33913086 -44.63378906 389.33913086 -46.35986328 390.34814453 C-47.98613647 391.29790161 -47.98613647 391.29790161 -49.64526367 392.2668457 C-51.34615315 393.27105405 -53.03957523 394.28852403 -54.71313477 395.33764648 C-60.58357195 398.96562693 -65.85289483 398.88755428 -72.55517578 397.98486328 C-86.64916056 393.63437296 -95.47046048 381.13735082 -102.31298828 368.82080078 C-105.11675433 363.1428223 -107.23576442 357.34987573 -108.86767578 351.23486328 C-109.04613037 350.56825684 -109.22458496 349.90165039 -109.40844727 349.21484375 C-110.28108194 345.54478664 -110.61822406 342.40778973 -110.24658203 338.64501953 C-109.63217897 332.12031565 -109.63217897 332.12031565 -111.55517578 325.98486328 C-116.461033 321.53119022 -122.3901752 318.72358538 -128.28955078 315.81689453 C-133.99870787 312.94547774 -137.25537875 310.29496291 -139.65209961 304.19140625 C-141.20753201 298.66854896 -140.96544339 293.1260369 -140.99267578 287.42236328 C-141.02554688 286.20355469 -141.05841797 284.98474609 -141.09228516 283.72900391 C-141.14500687 274.99157882 -141.14500687 274.99157882 -139.41113281 272.03222656 C-138.02783203 270.64501953 -138.02783203 270.64501953 -135.55517578 268.98486328 C-137.1634346 265.28761611 -139.50059104 262.52262673 -142.05517578 259.42236328 C-150.43827024 248.7989591 -156.61430455 236.6432949 -160.99267578 223.85986328 C-161.21536133 223.21766846 -161.43804687 222.57547363 -161.66748047 221.91381836 C-166.65312009 206.18677565 -167.00557534 190.38479561 -166.95361328 174.03955078 C-166.9556392 171.77133084 -166.95855492 169.50311154 -166.96231079 167.2348938 C-166.96670077 162.51672063 -166.96040524 157.7987194 -166.94628906 153.08056641 C-166.92910047 147.04276483 -166.93912045 141.0053606 -166.95700645 134.96757317 C-166.96785077 130.29895025 -166.96439662 125.63042157 -166.95662308 120.96179581 C-166.95462796 118.73471148 -166.95705603 116.50761848 -166.96406174 114.28054428 C-166.97169767 111.17507962 -166.96004597 108.07026041 -166.94335938 104.96484375 C-166.94943207 104.05359238 -166.95550476 103.142341 -166.96176147 102.20347595 C-166.90099484 96.08539722 -166.07323722 91.20026172 -162.1887207 86.23999023 C-160.03123721 84.58229742 -157.78434408 83.24817283 -155.41845703 81.90283203 C-154.37882812 81.30792969 -153.33919922 80.71302734 -152.26806641 80.10009766 C-150.58487305 79.14586914 -150.58487305 79.14586914 -148.86767578 78.17236328 C-147.09183835 77.15834154 -145.31701594 76.14255799 -143.54220581 75.1267395 C-142.32875804 74.43239737 -141.11498923 73.73861603 -139.90090942 73.04537964 C-134.09668261 69.72994392 -128.32385744 66.36172324 -122.55517578 62.98486328 C-108.82533978 54.96097727 -95.04438574 47.02627472 -81.26416016 39.08935547 C-70.60369886 32.94834701 -59.94404837 26.80604652 -49.31396484 20.61254883 C-47.32515029 19.45402078 -45.33493739 18.29788956 -43.34326172 17.14428711 C-38.35113007 14.24355481 -33.40801966 11.28637337 -28.51611328 8.21923828 C-27.04513184 7.31069092 -27.04513184 7.31069092 -25.54443359 6.38378906 C-23.69628014 5.23916896 -21.85869488 4.0772198 -20.03466797 2.89453125 C-13.32599071 -1.23020654 -7.5773754 -3.01038858 0 0 Z " fill="#5DB4AE" transform="translate(177.55517578125,1.01513671875)"/>
<path d="M0 0 C4.01181385 1.74599073 7.73411327 3.90465748 11.5 6.125 C13.11140869 7.053125 13.11140869 7.053125 14.75537109 8 C17.59993073 9.64600227 20.43504904 11.30672717 23.26501465 12.97766113 C25.00232537 14.00137023 26.74322901 15.01868394 28.48535156 16.03417969 C31.87283877 18.00998559 35.2503294 20.00236745 38.625 22 C39.66076172 22.6098877 40.69652344 23.21977539 41.76367188 23.84814453 C57.93872958 33.54838102 67.61194786 46.85118919 72.296875 65.26171875 C72.50722382 66.07440216 72.71757263 66.88708557 72.93429565 67.72439575 C76.16912877 80.38232943 79.02447075 93.13833796 81.92138672 105.87695312 C82.69241945 109.26095648 83.47426405 112.64231353 84.2578125 116.0234375 C84.48912872 117.05358978 84.72044495 118.08374207 84.95877075 119.14511108 C86.49491382 125.72756462 88.23833239 130.59356999 93.25 135.3125 C96.34904411 138.32743644 99.24591441 141.43635915 102.05078125 144.7265625 C103.47843212 146.39167835 104.9391146 148.02862633 106.41796875 149.6484375 C120.96571907 166.06692728 126.15793743 186.62444552 125.42578125 208.42578125 C124.76740339 213.62616076 123.653352 216.12134666 119.60546875 219.48046875 C114.66455625 222.72482193 108.09751264 227 102 227 C101.67 222.38 101.34 217.76 101 213 C83.21286284 222.88427001 83.21286284 222.88427001 65.61230469 233.09472656 C55.77404378 238.92778092 45.846605 244.60790327 35.93212891 250.31005859 C33.38200036 251.77983293 30.83621413 253.25664261 28.29296875 254.73828125 C27.63514404 255.11968262 26.97731934 255.50108398 26.29956055 255.89404297 C24.64621536 256.8527185 22.99488336 257.81486378 21.34375 258.77734375 C19 260 19 260 17 260 C17.41765625 261.59714844 17.41765625 261.59714844 17.84375 263.2265625 C18.7127692 268.09780706 19.19724989 272.43033618 17 277 C10.97545008 282.64308561 3.17347689 286.14700911 -4.22924805 289.64404297 C-7.04189667 290.95903218 -7.04189667 290.95903218 -9.69360352 292.69897461 C-12 294 -12 294 -14.640625 293.57421875 C-19.52716855 291.28436171 -24.11816547 288.57590849 -28.75 285.8125 C-30.91367549 284.53580222 -33.07775166 283.25978329 -35.2421875 281.984375 C-36.91619629 280.9953418 -36.91619629 280.9953418 -38.62402344 279.98632812 C-44.0212633 276.81074644 -49.44764 273.6862344 -54.875 270.5625 C-57.05991376 269.30341652 -59.24480949 268.04430177 -61.4296875 266.78515625 C-62.51475586 266.16012207 -63.59982422 265.53508789 -64.71777344 264.89111328 C-70.14659942 261.76319852 -75.57319281 258.63141552 -81 255.5 C-83.16665583 254.24998121 -85.3333225 252.99998122 -87.5 251.75 C-91.83333333 249.25 -96.16666667 246.75 -100.5 244.25 C-102.11068359 243.32078735 -102.11068359 243.32078735 -103.75390625 242.37280273 C-105.9076172 241.13023981 -108.06126367 239.88756511 -110.21484375 238.64477539 C-115.23684262 235.74685377 -120.25942807 232.84996651 -125.28442383 229.95724487 C-127.05045522 228.94052802 -128.81627431 227.92344342 -130.58203125 226.90625 C-132.78734155 225.63599127 -134.99304216 224.36640982 -137.19921875 223.09765625 C-155.37487019 212.62512981 -155.37487019 212.62512981 -157 211 C-157.10232434 209.47467077 -157.13519215 207.94462679 -157.14044189 206.4158783 C-157.14615204 205.42478058 -157.15186218 204.43368286 -157.15774536 203.41255188 C-157.15886322 202.31597763 -157.15998108 201.21940338 -157.16113281 200.08959961 C-157.16609772 198.94162903 -157.17106262 197.79365845 -157.17617798 196.61090088 C-157.19085004 192.79137585 -157.19761146 188.9718924 -157.203125 185.15234375 C-157.20887415 182.50492857 -157.21463191 179.85751341 -157.22039795 177.21009827 C-157.22997958 172.35939763 -157.23586938 167.50870601 -157.2388947 162.65799707 C-157.24336617 155.52770948 -157.26086614 148.39761448 -157.2898953 141.26738542 C-157.31155958 135.75390609 -157.32160165 130.24048071 -157.32293582 124.72695929 C-157.3239813 121.43575057 -157.33128978 118.14476313 -157.34775543 114.85359001 C-157.36484227 111.17430015 -157.36292838 107.49547574 -157.35644531 103.81616211 C-157.3656601 102.73375748 -157.37487488 101.65135284 -157.3843689 100.53614807 C-157.34396575 93.20272046 -156.57370529 87.37798819 -152 81.375 C-149.3564675 79.28220344 -146.93768944 77.80599632 -143.98046875 76.2265625 C-138.38808683 73.21330305 -132.84225272 70.12651037 -127.3125 67 C-126.32483643 66.4416748 -125.33717285 65.88334961 -124.31958008 65.30810547 C-116.23837404 60.72690555 -108.20742938 56.06286696 -100.19018555 51.37084961 C-89.58188952 45.162804 -78.93283053 39.02620279 -68.28222656 32.89111328 C-63.9338694 30.38572987 -59.58697496 27.8778157 -55.24023438 25.36962891 C-53.09322856 24.13079749 -50.94609472 22.89218794 -48.79882812 21.65380859 C-43.71787431 18.72338007 -38.63785075 15.79137035 -33.56085205 12.85409546 C-31.16069899 11.46561973 -28.76005639 10.07799167 -26.359375 8.69042969 C-24.66358382 7.7098117 -22.96850224 6.72796691 -21.2734375 5.74609375 C-19.73429687 4.85664063 -19.73429687 4.85664063 -18.1640625 3.94921875 C-17.26123535 3.42674561 -16.3584082 2.90427246 -15.42822266 2.3659668 C-14.62690918 1.91519775 -13.8255957 1.46442871 -13 1 C-12.31663574 0.6093335 -11.63327148 0.21866699 -10.92919922 -0.18383789 C-7.22955599 -1.74899953 -3.79940185 -0.98732559 0 0 Z " fill="#FEB938" transform="translate(377,162)"/>
<path d="M0 0 C3.11442699 1.45079799 5.78431881 3.20262345 8.5625 5.21875 C13.86893978 8.9735992 19.36481482 12.26652659 25 15.5 C26.03543945 16.09893066 27.07087891 16.69786133 28.13769531 17.31494141 C30.32305004 18.57819584 32.50959307 19.8393966 34.69726562 21.09863281 C37.92068017 22.95433598 41.14052051 24.81608791 44.359375 26.6796875 C60.2049649 35.84698959 76.09998577 44.92758736 92 54 C110.02726134 64.28620172 128.04037942 74.59593913 146 85 C147.0739502 85.62213379 148.14790039 86.24426758 149.25439453 86.88525391 C169.07141989 98.37644863 169.07141989 98.37644863 176.375 102.9375 C185.9394832 108.89154915 195.77163489 114.40296816 205.54052734 120.01220703 C211.03139249 123.16722637 216.51544556 126.33402775 222 129.5 C224.1692465 130.75134427 226.33851737 132.00264628 228.5078125 133.25390625 C232.81601651 135.73930902 237.12322789 138.22641977 241.4296875 140.71484375 C253.388431 147.62286953 265.36531052 154.49756376 277.36230469 161.33883667 C284.39258258 165.34922703 291.40543423 169.3849861 298.375 173.5 C299.03346924 173.88615479 299.69193848 174.27230957 300.37036133 174.67016602 C303.59114194 176.56148839 306.78754418 178.4832173 309.9609375 180.453125 C311.22389137 181.21886046 312.4869092 181.98449043 313.75 182.75 C314.83796875 183.42546875 315.9259375 184.1009375 317.046875 184.796875 C319.87089526 186.31867788 319.87089526 186.31867788 322.31445312 185.24145508 C323.20068359 184.8317749 324.08691406 184.42209473 325 184 C326.40910645 183.38499634 326.40910645 183.38499634 327.84667969 182.75756836 C341.24453277 177.45646988 341.24453277 177.45646988 350.82519531 167.91894531 C350.91889485 165.7061946 350.73723138 163.74636603 350.375 161.5625 C349.8987392 158.38479011 349.72358986 155.99353518 351 153 C357.72065728 147.03112582 366.59633813 143.42448756 374.67529297 139.60595703 C378.78583493 137.62041253 382.67333776 135.38232987 386.5625 133 C387.87114616 132.2192557 389.18109015 131.44068349 390.4921875 130.6640625 C391.18666992 130.25188477 391.88115234 129.83970703 392.59667969 129.41503906 C401.04639331 124.43997403 409.56388094 119.57910088 418.06347656 114.68994141 C420.62438271 113.21616419 423.18361603 111.73954335 425.7421875 110.26171875 C427.01552713 109.52847586 428.28895418 108.79538472 429.5625 108.0625 C430.61566406 107.45535156 431.66882813 106.84820312 432.75390625 106.22265625 C435 105 435 105 436 105 C436 109.95 436 114.9 436 120 C437.50433594 119.13375 439.00867188 118.2675 440.55859375 117.375 C442.5181646 116.24988755 444.47780353 115.12489364 446.4375 114 C447.43072266 113.42765625 448.42394531 112.8553125 449.44726562 112.265625 C450.39150391 111.72421875 451.33574219 111.1828125 452.30859375 110.625 C453.18314209 110.12226563 454.05769043 109.61953125 454.95874023 109.1015625 C457 108 457 108 458 108 C458.08735463 112.54154478 458.14051247 117.08287232 458.1875 121.625 C458.22520508 123.55279297 458.22520508 123.55279297 458.26367188 125.51953125 C458.27333984 126.76347656 458.28300781 128.00742187 458.29296875 129.2890625 C458.3086792 130.43068848 458.32438965 131.57231445 458.34057617 132.74853516 C457.86387222 137.29960561 456.60669334 140.64991031 453.05249023 143.63647461 C452.31200439 144.05421143 451.57151855 144.47194824 450.80859375 144.90234375 C449.53580566 145.63686768 449.53580566 145.63686768 448.23730469 146.38623047 C447.31336914 146.89814941 446.38943359 147.41006836 445.4375 147.9375 C444.46586914 148.49324707 443.49423828 149.04899414 442.49316406 149.62158203 C440.4084416 150.8128993 438.31992447 151.99759613 436.22802734 153.17626953 C431.9604648 155.58730358 427.72142993 158.04630377 423.48071289 160.50415039 C420.20392701 162.40168007 416.92297941 164.29180843 413.640625 166.1796875 C407.09031108 169.94717574 400.544733 173.72282734 394 177.5 C391.83335502 178.75003758 389.66668834 180.00003756 387.5 181.25 C386.4275 181.86875 385.355 182.4875 384.25 183.125 C381 185 377.75 186.875 374.5 188.75 C373.4265332 189.36931396 372.35306641 189.98862793 371.24707031 190.62670898 C369.09019097 191.87104998 366.93329008 193.11535364 364.77636719 194.35961914 C358.06217956 198.23291561 351.3484583 202.10701635 344.63647461 205.98413086 C342.40702373 207.27011143 340.1761021 208.55354614 337.94360352 209.83422852 C333.45382542 212.41150826 328.97463396 214.99109183 324.57421875 217.71875 C323.94290039 218.10297119 323.31158203 218.48719238 322.66113281 218.88305664 C321.10763486 219.83341891 319.56665385 220.80416918 318.02734375 221.77734375 C314.98566247 223.00579051 314.04998138 223.01589185 310.94140625 222.7421875 C304.03723096 222.50167172 298.66996545 226.6883723 293 230.1875 C290.75023697 231.53555181 288.50024138 232.88321559 286.25 234.23046875 C281.82474289 236.89765736 281.82474289 236.89765736 277.40991211 239.58203125 C270.80954903 243.47154333 265.63908968 244.10197137 258 243 C245.63195641 239.66026123 236.27107258 227.62985771 230.02905273 217.01049805 C224.86050366 207.57858537 219.01551787 194.25860236 220.4921875 183.37109375 C220.93813797 178.78872512 221.18033219 175.14792469 219 171 C213.4433911 165.82621437 206.04030729 162.86178982 199.26367188 159.61523438 C194.08075358 157.05013957 189.15104889 154.08644514 184.1875 151.125 C182.17953251 149.94726085 180.17040311 148.77150058 178.16015625 147.59765625 C177.15098145 147.00742676 176.14180664 146.41719727 175.10205078 145.80908203 C166.54344681 140.81779796 157.95094806 135.88474752 149.36572266 130.93945312 C145.8510675 128.91417962 142.33744531 126.88712521 138.82421875 124.859375 C138.23406982 124.51877548 137.6439209 124.17817596 137.03588867 123.82725525 C134.20307244 122.19230093 131.37031 120.55725345 128.53759766 118.92211914 C126.55293365 117.77690289 124.56611232 116.63541314 122.57666016 115.49853516 C120.99646745 114.57952598 119.42963386 113.63641631 117.88818359 112.65380859 C114.53938001 110.50429115 114.53938001 110.50429115 110.6784668 110.203125 C107.48522964 111.15315017 104.94449653 112.55155674 102.0703125 114.23828125 C100.94496094 114.89376953 99.81960937 115.54925781 98.66015625 116.22460938 C97.48165324 116.92037377 96.30326865 117.61633879 95.125 118.3125 C93.95481298 118.99740453 92.78424317 119.68165551 91.61328125 120.36523438 C90.48535156 121.02458984 89.35742188 121.68394531 88.1953125 122.36328125 C87.11113037 122.99645264 86.02694824 123.62962402 84.90991211 124.28198242 C83.20902263 125.28619077 81.51560055 126.30366075 79.84204102 127.3527832 C73.97160383 130.98076365 68.70228095 130.902691 62 130 C47.90601522 125.64950968 39.0847153 113.15248754 32.2421875 100.8359375 C29.43842145 95.15795902 27.31941136 89.36501245 25.6875 83.25 C25.50904541 82.58339355 25.33059082 81.91678711 25.14672852 81.22998047 C24.27409384 77.55992336 23.93695172 74.42292645 24.30859375 70.66015625 C24.92299681 64.13545236 24.92299681 64.13545236 23 58 C18.09414278 53.54632693 12.16500058 50.7387221 6.265625 47.83203125 C0.55646791 44.96061445 -2.70020297 42.31009963 -5.09692383 36.20654297 C-6.65235623 30.68368568 -6.41026761 25.14117362 -6.4375 19.4375 C-6.47037109 18.21869141 -6.50324219 16.99988281 -6.53710938 15.74414062 C-6.58975216 7.019796 -6.58975216 7.019796 -4.89111328 4.08251953 C-3.53515625 2.72265625 -3.53515625 2.72265625 -1 1 C-0.67 0.67 -0.34 0.34 0 0 Z " fill="#4E417C" transform="translate(43,269)"/>
<path d="M0 0 C3.92930783 1.87000187 7.67693213 4.0008932 11.4375 6.1875 C12.53715088 6.815354 13.63680176 7.44320801 14.76977539 8.09008789 C18.18761178 10.046939 21.5951041 12.02073124 25 14 C26.52947266 14.88655273 26.52947266 14.88655273 28.08984375 15.79101562 C33.03702762 18.66116238 37.97620499 21.54467141 42.91015625 24.4375 C49.21570465 28.13213337 55.54297534 31.7884724 61.875 35.4375 C63.49305542 36.37021729 63.49305542 36.37021729 65.14379883 37.32177734 C68.42892251 39.21499899 71.71439728 41.10760983 75 43 C88.61723397 50.84304188 102.2225117 58.70433791 115.78564453 66.640625 C121.32308775 69.8743821 126.875245 73.08068824 132.4453125 76.2578125 C133.07500946 76.61700272 133.70470642 76.97619293 134.35348511 77.3462677 C137.42127119 79.09514069 140.49064083 80.84117102 143.56201172 82.58374023 C146.71502029 84.37734738 149.86081877 86.18231451 153 88 C153.84175781 88.48670166 154.68351562 88.97340332 155.55078125 89.47485352 C160.87863999 92.65867496 160.87863999 92.65867496 162 95.8125 C162 96.534375 162 97.25625 162 98 C155.99127228 102.87414923 149.54414542 106.71278202 142.80413818 110.48904419 C139.6782288 112.24065961 136.56279685 114.01079255 133.4453125 115.77734375 C132.81424591 116.13420761 132.18317932 116.49107147 131.5329895 116.85874939 C125.61615172 120.20744262 119.7410335 123.62564008 113.875 127.0625 C102.39670921 133.77835886 90.8805926 140.42730009 79.35693359 147.06494141 C75.86807297 149.07604754 72.38105172 151.09030995 68.89453125 153.10546875 C67.71794788 153.78525786 66.54135295 154.46502695 65.36474609 155.14477539 C63.14731622 156.42598166 60.93017441 157.70768667 58.71337891 158.98999023 C56.7241369 160.13882589 54.73240278 161.28336095 52.73779297 162.42285156 C50.96993099 163.44125609 49.21271545 164.478477 47.46923828 165.53808594 C46.31077393 166.22692871 46.31077393 166.22692871 45.12890625 166.9296875 C44.47092041 167.33171387 43.81293457 167.73374023 43.13500977 168.14794922 C39.30129598 169.67792762 36.16229279 169.47733939 32.37304688 167.92114258 C31.49712891 167.41736084 30.62121094 166.9135791 29.71875 166.39453125 C28.72367432 165.83000244 27.72859863 165.26547363 26.70336914 164.68383789 C25.64625732 164.06629639 24.58914551 163.44875488 23.5 162.8125 C22.39068115 162.17755615 21.2813623 161.5426123 20.13842773 160.88842773 C16.74932545 158.94168175 13.3725336 156.97529097 10 155 C9.04367676 154.43990234 8.08735352 153.87980469 7.10205078 153.30273438 C2.61018142 150.66415377 -1.87074182 148.0076063 -6.34765625 145.34375 C-13.58898228 141.04465145 -20.8923408 136.85388493 -28.19165039 132.65429688 C-35.43576155 128.48456275 -42.66112907 124.28430177 -49.875 120.0625 C-58.55252122 114.98706373 -67.26629082 109.97782748 -76 105 C-124.85136756 77.14863244 -124.85136756 77.14863244 -128 74 C-128.30615234 71.61279297 -128.30615234 71.61279297 -128 69 C-126.39306641 67.47705078 -126.39306641 67.47705078 -124.1015625 66.1953125 C-123.24336914 65.70240723 -122.38517578 65.20950195 -121.50097656 64.70166016 C-120.5519043 64.1813623 -119.60283203 63.66106445 -118.625 63.125 C-117.63983398 62.56474121 -116.65466797 62.00448242 -115.63964844 61.42724609 C-113.52268884 60.22414167 -111.40141982 59.028595 -109.27636719 57.83984375 C-104.98585347 55.43050609 -100.73066421 52.96235614 -96.47412109 50.49365234 C-93.2000032 48.5960226 -89.92109713 46.70693388 -86.640625 44.8203125 C-80.09031101 41.05282421 -73.54475745 37.27713038 -67 33.5 C-64.83985726 32.25388283 -62.67970099 31.00778911 -60.51953125 29.76171875 C-55.0090416 26.58268571 -49.49973228 23.40161503 -43.99145508 20.21875 C-41.80918169 18.9596655 -39.62545 17.70310479 -37.44018555 16.44921875 C-32.24442825 13.46638839 -27.07316974 10.45379347 -21.9453125 7.35546875 C-20.99309814 6.78852295 -20.04088379 6.22157715 -19.05981445 5.63745117 C-17.28349412 4.57873079 -15.51566736 3.50556919 -13.75854492 2.4152832 C-8.75823078 -0.53923938 -5.78740885 -1.91046722 0 0 Z " fill="#277174" transform="translate(176,14)"/>
<path d="M0 0 C2.7040866 5.77509941 4.31334729 11.56231073 5.8125 17.75 C6.06821777 18.78769531 6.32393555 19.82539063 6.58740234 20.89453125 C8.81959015 30.04691035 10.87064257 39.23812751 12.87451172 48.44287109 C14.52754371 56.01015782 16.36059272 63.49813381 18.43359375 70.9609375 C19.04277906 74.22953178 19.07827271 75.871801 18 79 C15.69702148 80.81420898 15.69702148 80.81420898 12.62109375 82.49609375 C11.48462402 83.12974854 10.3481543 83.76340332 9.17724609 84.41625977 C7.93070673 85.09008545 6.68412358 85.76383013 5.4375 86.4375 C4.15601094 87.14645632 2.87558493 87.85733734 1.59619141 88.57006836 C-1.01455319 90.0235998 -3.62886282 91.4703842 -6.24560547 92.91308594 C-11.59183632 95.8718629 -16.85859827 98.96448599 -22.125 102.0625 C-30.39866783 106.90654684 -38.69193135 111.71520325 -47 116.5 C-55.53331887 121.41623149 -64.05571266 126.35049006 -72.5625 131.3125 C-73.54758545 131.88629395 -74.5326709 132.46008789 -75.54760742 133.05126953 C-80.10398881 135.70906296 -84.64982487 138.38180722 -89.171875 141.09765625 C-89.96134521 141.56969482 -90.75081543 142.0417334 -91.56420898 142.52807617 C-93.01767736 143.39883142 -94.46795602 144.27494314 -95.91430664 145.1574707 C-100.66597032 148 -100.66597032 148 -104 148 C-105.19213088 143.14695799 -106.37868551 138.29257562 -107.5625 133.4375 C-107.8316925 132.3349588 -107.8316925 132.3349588 -108.10632324 131.21014404 C-110.1273834 122.92029188 -112.10889427 114.62500503 -113.94921875 106.29296875 C-114.17944481 105.25392647 -114.17944481 105.25392647 -114.4143219 104.19389343 C-115.14171934 100.9040848 -115.85961083 97.61281492 -116.56469727 94.31811523 C-118.01201574 87.72003263 -119.73832253 81.48326071 -122.23925781 75.20263672 C-123 73 -123 73 -123 70 C-122.14341797 69.51926025 -122.14341797 69.51926025 -121.26953125 69.02880859 C-109.23307472 62.26667374 -97.25006938 55.42357766 -85.33789062 48.44482422 C-77.58812395 43.91083693 -69.80105699 39.44482397 -62 35 C-53.18585166 29.97588266 -44.38809162 24.92537788 -35.625 19.8125 C-34.66126465 19.25030762 -33.6975293 18.68811523 -32.70458984 18.10888672 C-27.68540703 15.17432145 -22.6800343 12.21796959 -17.6875 9.23828125 C-16.66962402 8.63201904 -15.65174805 8.02575684 -14.60302734 7.40112305 C-12.65824513 6.24123695 -10.71575127 5.07750293 -8.77587891 3.90942383 C-7.91397949 3.39532959 -7.05208008 2.88123535 -6.1640625 2.3515625 C-5.40561035 1.89604004 -4.6471582 1.44051758 -3.86572266 0.97119141 C-2 0 -2 0 0 0 Z " fill="#604F98" transform="translate(438,217)"/>
<path d="M0 0 C7.46506349 3.59387138 14.62005342 7.59760971 21.75 11.8125 C27.90307405 15.43869655 34.04839379 19.05790322 40.31884766 22.4777832 C53.1545228 29.54261644 60.81355525 40.02364783 65.03125 54.03759766 C67.70025946 63.70178239 69.7512408 73.54782653 71.85791016 83.34643555 C73.19483241 89.55043287 74.67236817 95.66500056 76.44482422 101.76000977 C77 104 77 104 77 107 C73.36739655 105.63527177 70.09038593 104.0019884 66.73828125 102.05078125 C65.71500732 101.4575708 64.6917334 100.86436035 63.63745117 100.25317383 C62.54021729 99.61275146 61.4429834 98.9723291 60.3125 98.3125 C59.15426091 97.63985951 57.99580983 96.96758392 56.8371582 96.2956543 C54.42738337 94.89776041 52.01852964 93.49829901 49.61035156 92.09765625 C43.97705782 88.82268766 38.33191421 85.56825116 32.6875 82.3125 C31.72561768 81.75667236 30.76373535 81.20084473 29.77270508 80.62817383 C19.53512575 74.71721576 9.26643929 68.86063862 -1 63 C-1.02312737 54.93347826 -1.04091709 46.86697028 -1.05181217 38.80042362 C-1.05704014 35.05516963 -1.06413622 31.30993824 -1.07543945 27.56469727 C-1.08627141 23.95318313 -1.09227749 20.34169079 -1.09487724 16.73016167 C-1.09673094 15.34939671 -1.10035049 13.968633 -1.10573006 12.58787727 C-1.11294447 10.66024048 -1.11340809 8.73258193 -1.11352539 6.80493164 C-1.115746 5.70572891 -1.11796661 4.60652618 -1.12025452 3.47401428 C-1 1 -1 1 0 0 Z " fill="#4A3D73" transform="translate(234,254)"/>
<path d="M0 0 C4.59691825 0.91938365 6.98747203 1.915303 10.9453125 4.2109375 C11.7891449 4.69647346 11.7891449 4.69647346 12.65002441 5.19181824 C14.47892639 6.24627433 16.30191797 7.31051886 18.125 8.375 C19.39986193 9.11253069 20.67509308 9.8494235 21.95068359 10.58569336 C24.48506248 12.0500858 27.01712268 13.51835224 29.546875 14.99072266 C32.41384898 16.65893503 35.28360476 18.32205241 38.15625 19.98046875 C41.15156989 21.71040503 44.14503103 23.44347734 47.13671875 25.1796875 C65.53770068 35.8557108 83.99091897 46.43991435 102.46777344 56.98388672 C105.98180679 58.98935815 109.4949478 60.99638861 113.0078125 63.00390625 C113.58540817 63.33397675 114.16300385 63.66404724 114.75810242 64.00411987 C117.66253216 65.663946 120.56680407 67.32404751 123.47094727 68.984375 C128.83947478 72.05333067 134.20913762 75.12023668 139.58323669 78.1794281 C175.79066071 98.79066071 175.79066071 98.79066071 178 101 C178.07271741 103.35313555 178.08370868 105.70833668 178.0625 108.0625 C178.05347656 109.35285156 178.04445312 110.64320313 178.03515625 111.97265625 C178.01775391 113.47119141 178.01775391 113.47119141 178 115 C174.18567687 113.56515448 170.69412552 111.81775096 167.1328125 109.83984375 C166.0080249 109.2159375 164.8832373 108.59203125 163.72436523 107.94921875 C162.52442302 107.27892109 161.32463782 106.60834228 160.125 105.9375 C159.51375275 105.59686523 158.90250549 105.25623047 158.2727356 104.90527344 C150.4406467 100.53958174 142.67980543 96.08712677 135.0234375 91.41796875 C129.58989753 88.12504387 124.06958704 84.98020494 118.5625 81.8125 C110.02611499 76.9012393 101.50202812 71.97051416 93 67 C84.68256019 62.13883768 76.34794254 57.30858843 68 52.5 C56.65757416 45.96550151 45.344176 39.38247639 34.04248047 32.77783203 C28.67529872 29.64159246 23.30645978 26.50819442 17.9375 23.375 C16.94411621 22.79484131 15.95073242 22.21468262 14.92724609 21.61694336 C9.96481956 18.7207001 4.99469493 15.84025648 0 13 C0 8.71 0 4.42 0 0 Z " fill="#439B9A" transform="translate(26,156)"/>
<path d="M0 0 C3.23120296 0.65406544 5.71994243 1.81984478 8.578125 3.44921875 C9.92970703 4.21588867 9.92970703 4.21588867 11.30859375 4.99804688 C12.76458984 5.83432617 12.76458984 5.83432617 14.25 6.6875 C15.77560547 7.55665039 15.77560547 7.55665039 17.33203125 8.44335938 C25.59239419 13.1613949 33.80703826 17.95731469 42.01464844 22.76635742 C49.75232701 27.2933628 57.54544746 31.7148089 65.35986328 36.10766602 C72.23888498 39.98304743 79.06511122 43.94206913 85.875 47.9375 C94.17602485 52.80649423 102.53012972 57.56706737 110.9375 62.25 C118.42702613 66.42174991 125.87524341 70.6423338 133.24414062 75.0234375 C141.44506198 79.88558144 149.74226912 84.58134345 158.03051758 89.29248047 C160.3007914 90.58507314 162.56622757 91.88620847 164.82617188 93.19677734 C166.87365225 94.36006119 168.94730282 95.4789614 171.04882812 96.54150391 C173.59517573 97.88000333 175.8286776 99.11328131 178 101 C178.83876095 104.32149335 179.02708593 105.68305629 178.625 108.875 C178.57988281 109.56335938 178.53476563 110.25171875 178.48828125 110.9609375 C178.37137151 112.64443777 178.19197704 114.32340051 178 116 C169.87256151 111.61197992 161.82727154 107.09004641 153.8125 102.5 C153.20772827 102.15406799 152.60295654 101.80813599 151.9798584 101.45172119 C140.59130229 94.93637134 129.24944552 88.34253847 117.92675781 81.71337891 C112.9949194 78.82618822 108.06044184 75.94352583 103.125 73.0625 C102.13983398 72.48741699 101.15466797 71.91233398 100.13964844 71.31982422 C91.67996057 66.38660903 83.19727938 61.49374096 74.71142578 56.60571289 C66.47684236 51.85962077 58.26390352 47.07741948 50.05883789 42.28051758 C43.66124648 38.5434465 37.2498302 34.83138441 30.82568359 31.14013672 C28.59176862 29.85271404 26.36152079 28.55890413 24.13525391 27.25830078 C19.48718388 24.54591991 14.85953811 21.88359783 10.02734375 19.51171875 C6.26900874 17.61353561 3.04874078 15.94073386 0 13 C-1.19327852 8.41968636 -0.96097405 4.6055571 0 0 Z " fill="#439B9A" transform="translate(26,128)"/>
<path d="M0 0 C0.79843566 5.24101356 1.04477975 9.77074341 0 15 C-2.93570826 18.33524252 -6.55545244 19.89519174 -10.53662109 21.77246094 C-15.30792708 24.15007506 -19.86281621 26.92555056 -24.46124268 29.61816406 C-27.22937074 31.23266891 -30.01218975 32.82147617 -32.79296875 34.4140625 C-37.60517936 37.17430192 -42.35529481 40.01942679 -47.06762695 42.94677734 C-49 44 -49 44 -51 44 C-51 44.66 -51 45.32 -51 46 C-51.598125 46.103125 -52.19625 46.20625 -52.8125 46.3125 C-55.06591338 46.8279009 -55.06591338 46.8279009 -56.4375 48.5 C-58.48513623 50.46573078 -60.23747349 50.62668561 -63 51 C-63 51.66 -63 52.32 -63 53 C-65.31 53.66 -67.62 54.32 -70 55 C-70 55.66 -70 56.32 -70 57 C-72.31 57.66 -74.62 58.32 -77 59 C-77 59.66 -77 60.32 -77 61 C-79.90548882 63.04169485 -81.40142046 64 -85 64 C-85 58.72 -85 53.44 -85 48 C-83.24816406 47.03320312 -81.49632812 46.06640625 -79.69140625 45.0703125 C-63.50576014 36.12984301 -63.50576014 36.12984301 -47.51074219 26.85449219 C-37.71230171 21.0308457 -27.81675934 15.37327637 -17.93652344 9.68994141 C-15.37561729 8.21616419 -12.81638397 6.73954335 -10.2578125 5.26171875 C-8.98447287 4.52847586 -7.71104582 3.79538472 -6.4375 3.0625 C-4.85775391 2.15177734 -4.85775391 2.15177734 -3.24609375 1.22265625 C-1 0 -1 0 0 0 Z " fill="#45396A" transform="translate(479,374)"/>
<path d="M0 0 C9.07956091 4.2555366 13.67673826 11.34196348 17.375 20.375 C19.42637325 26.52911976 20.51606985 32.99020779 18.1640625 39.2109375 C16.76915142 41.78051053 15.66059678 43.66970161 13 45 C8.55093528 45.37075539 5.9916189 45.46545377 1.9375 43.5625 C-5.8588124 36.76146152 -11.32771478 28.66740603 -12.37890625 18.2421875 C-12.59532234 11.10743764 -12.60736508 6.7420147 -8 1 C-5.00818583 -0.49590709 -3.3583794 -0.42743011 0 0 Z " fill="#AA9CDC" transform="translate(292,443)"/>
<path d="M0 0 C8.70879102 3.86353638 13.50159206 11.04294191 17.09765625 19.6171875 C19.50456252 26.80432156 20.44884248 33.50374728 17.125 40.5 C15.34146341 43.82926829 15.34146341 43.82926829 13 45 C8.44692607 45.37942283 5.98207287 45.49103644 1.875 43.4375 C-5.0987338 37.52498656 -11.03486259 30.2959588 -12.27490234 20.921875 C-12.45206543 18.65101141 -12.53373322 16.40245132 -12.5625 14.125 C-12.57716309 13.39941895 -12.59182617 12.67383789 -12.60693359 11.92626953 C-12.51253281 7.0208409 -11.49010963 4.4313975 -8 1 C-5.00818583 -0.49590709 -3.3583794 -0.42743011 0 0 Z " fill="#AB9CDC" transform="translate(96,330)"/>
<path d="M0 0 C4.70588235 0.70588235 4.70588235 0.70588235 6 2 C7.60352599 8.03484677 8.75192681 14.15869077 6 20 C0.01568305 25.70740768 -7.79952218 29.19841169 -15.22924805 32.65991211 C-18.04377163 33.95633557 -18.04377163 33.95633557 -20.68676758 35.70141602 C-23 37 -23 37 -25.75 36.5 C-29.96609442 34.55411027 -33.98867455 32.33548282 -38 30 C-38.05379226 27.04142591 -38.09357093 24.08382279 -38.125 21.125 C-38.14175781 20.28324219 -38.15851563 19.44148438 -38.17578125 18.57421875 C-38.18222656 17.76855469 -38.18867188 16.96289062 -38.1953125 16.1328125 C-38.20578613 15.38918457 -38.21625977 14.64555664 -38.22705078 13.87939453 C-38 12 -38 12 -36 10 C-33.0574037 10.30652045 -30.65457692 10.67271154 -28 12 C-21.03605952 12.94132004 -16.52594058 10.00827355 -10.625 6.5625 C-9.71105469 6.04623047 -8.79710937 5.52996094 -7.85546875 4.99804688 C-3.68759783 2.83182155 -3.68759783 2.83182155 0 0 Z " fill="#FDFCFB" transform="translate(388,419)"/>
<path d="M0 0 C1.25237466 7.21753153 2.42769553 14.94427304 0 22 C-5.0745279 27.83429536 -12.82195522 31.38192497 -20 34 C-20.66 34 -21.32 34 -22 34 C-22.1630807 30.97696705 -22.28136405 27.96283294 -22.375 24.9375 C-22.42527344 24.08994141 -22.47554688 23.24238281 -22.52734375 22.36914062 C-22.63322459 17.7986177 -22.35213131 14.78540627 -19.4296875 11.15625 C-16.24227315 7.94104117 -12.73034706 5.67495114 -8.75 3.5625 C-8.12609375 3.21251953 -7.5021875 2.86253906 -6.859375 2.50195312 C-2.31571062 0 -2.31571062 0 0 0 Z " fill="#E6DEEF" transform="translate(501,355)"/>
<path d="M0 0 C5.00310051 1.79624501 9.54953829 4.37237034 14.1875 6.9375 C15.00669922 7.38029297 15.82589844 7.82308594 16.66992188 8.27929688 C17.45302734 8.71177734 18.23613281 9.14425781 19.04296875 9.58984375 C20.11067505 10.17560181 20.11067505 10.17560181 21.19995117 10.77319336 C23 12 23 12 25 15 C23.86304688 15.6290625 22.72609375 16.258125 21.5546875 16.90625 C11.99595732 22.20188209 2.47099399 27.54884912 -7 33 C-7.33 32.34 -7.66 31.68 -8 31 C-7.34 31 -6.68 31 -6 31 C-5.32438252 29.3369416 -4.66066719 27.66905395 -4 26 C-3.4946875 24.8140625 -2.989375 23.628125 -2.46875 22.40625 C-0.73812493 17.78136759 -0.4521841 13.40091638 -0.3125 8.5 C-0.27833984 7.67757813 -0.24417969 6.85515625 -0.20898438 6.0078125 C-0.1275012 4.0056545 -0.06205425 2.00285432 0 0 Z " fill="#322A51" transform="translate(130,363)"/>
<path d="M0 0 C5.23936268 1.99396496 9.91204164 4.69296869 14.75 7.5 C15.62527344 7.99886719 16.50054687 8.49773437 17.40234375 9.01171875 C18.23378906 9.49253906 19.06523437 9.97335937 19.921875 10.46875 C20.68081055 10.90638672 21.43974609 11.34402344 22.22167969 11.79492188 C24 13 24 13 25 15 C21.35448541 17.06306376 17.70852961 19.12534659 14.0625 21.1875 C13.04091797 21.76564453 12.01933594 22.34378906 10.96679688 22.93945312 C4.99174755 26.31831488 -0.99311855 29.67803411 -7 33 C-5.21127349 28.37912317 -5.21127349 28.37912317 -4.01171875 26.2265625 C0.29332189 18.05481263 0 9.0475897 0 0 Z " fill="#322A51" transform="translate(326,476)"/>
<path d="M0 0 C4.55774219 0.42397602 8.55125257 1.72892931 13 3 C13 10.92 13 18.84 13 27 C8.82562101 25.60854034 5.80803904 24.49553763 2.125 22.375 C1.34382813 21.92898438 0.56265625 21.48296875 -0.2421875 21.0234375 C-0.82226562 20.68570312 -1.40234375 20.34796875 -2 20 C-2.05379226 17.04142591 -2.09357093 14.08382279 -2.125 11.125 C-2.14175781 10.28324219 -2.15851563 9.44148438 -2.17578125 8.57421875 C-2.18222656 7.76855469 -2.18867188 6.96289062 -2.1953125 6.1328125 C-2.21102295 5.01737061 -2.21102295 5.01737061 -2.22705078 3.87939453 C-2 2 -2 2 0 0 Z " fill="#C6B9E6" transform="translate(352,429)"/>
<path d="M0 0 C5.95126846 2.58978276 10.3749024 7.89411982 12.9375 13.8125 C14.55653359 18.75845016 14.25512451 23.85971355 14 29 C6.70770539 24.76029383 2.71666914 19.01417396 0 11 C-0.55323255 7.67566509 -0.97415397 4.37290704 -1 1 C-0.67 0.67 -0.34 0.34 0 0 Z " fill="#5D4E92" transform="translate(98,335)"/>
<path d="M0 0 C4.37908374 1.34914972 6.16226588 3.02748616 8.6875 6.8125 C9.55955078 8.09060547 9.55955078 8.09060547 10.44921875 9.39453125 C13.31322209 14.20634542 14.24853817 17.69151328 14.125 23.3125 C14.10695313 24.38113281 14.08890625 25.44976562 14.0703125 26.55078125 C14.03550781 27.76314453 14.03550781 27.76314453 14 29 C6.5891681 25.11813567 2.59299011 17.80320388 0 10 C-0.1953125 7.32421875 -0.1953125 7.32421875 -0.125 4.6875 C-0.10695313 3.80449219 -0.08890625 2.92148437 -0.0703125 2.01171875 C-0.04710937 1.34785156 -0.02390625 0.68398438 0 0 Z " fill="#5C4D91" transform="translate(294,448)"/>
<path d="M0 0 C7.1044135 3.32979667 11.25337115 8.24378405 15 15 C15.38027344 15.68320312 15.76054687 16.36640625 16.15234375 17.0703125 C17.32806105 19.74683022 17.13113633 22.11500067 17 25 C15.26763052 22.40144578 13.96469732 19.93239121 12.625 17.125 C9.75785223 11.36555404 7.05539077 6.73934344 1 4 C-2.04279372 3.33319632 -2.04279372 3.33319632 -5 4 C-7.32637028 6.12517069 -8.81360653 7.82736366 -9.31860352 11.00439453 C-9.3932228 13.28647985 -9.34942361 15.53149296 -9.25 17.8125 C-9.23195313 18.60076172 -9.21390625 19.38902344 -9.1953125 20.20117188 C-9.14844048 22.13464261 -9.0767041 24.06748285 -9 26 C-12.42172547 22.42397922 -12.43267308 19.46157035 -12.4375 14.625 C-12.45683594 13.33851563 -12.47617187 12.05203125 -12.49609375 10.7265625 C-11.9287162 6.46452958 -10.68732656 4.31286813 -8 1 C-5.00818583 -0.49590709 -3.3583794 -0.42743011 0 0 Z " fill="#CBC4E4" transform="translate(292,443)"/>
<path d="M0 0 C0.66 0.33 1.32 0.66 2 1 C1.67 1.33 1.34 1.66 1 2 C0.91314397 3.56172745 0.89297781 5.12729344 0.90234375 6.69140625 C0.90556641 7.63564453 0.90878906 8.57988281 0.91210938 9.55273438 C0.92048828 10.54595703 0.92886719 11.53917969 0.9375 12.5625 C0.94201172 13.55958984 0.94652344 14.55667969 0.95117188 15.58398438 C0.96299993 18.05604849 0.97948151 20.52799518 1 23 C-0.65 23.66 -2.3 24.32 -4 25 C-4 17.41 -4 9.82 -4 2 C-2.68 1.34 -1.36 0.68 0 0 Z " fill="#EFE9F4" transform="translate(369,430)"/>
<path d="M0 0 C1.32 0 2.64 0 4 0 C4 7.92 4 15.84 4 24 C2.68 23.67 1.36 23.34 0 23 C0 15.41 0 7.82 0 0 Z " fill="#D5CDEE" transform="translate(361,432)"/>
<path d="M0 0 C2.875 1.375 2.875 1.375 5 3 C5 3.66 5 4.32 5 5 C4.32453125 4.88140625 3.6490625 4.7628125 2.953125 4.640625 C-2.4287754 3.76461358 -2.4287754 3.76461358 -7.5 5.25 C-9.85309517 9.56400782 -10.36678134 14.16754178 -11 19 C-11.33 19 -11.66 19 -12 19 C-12.10864945 16.93867858 -12.18588321 14.87568679 -12.25 12.8125 C-12.29640625 11.66394531 -12.3428125 10.51539063 -12.390625 9.33203125 C-11.9249943 5.36020138 -10.77629613 3.81228515 -8 1 C-5.17998673 -0.41000664 -3.12992745 -0.24548451 0 0 Z " fill="#CBC3E4" transform="translate(96,330)"/>
<path d="M0 0 C5.76269865 2.22620809 8.35812064 7.70233665 11 13 C11.77506782 16.14533335 11.94650336 18.73670508 12 22 C10.3378154 19.5067231 9.38429444 17.55260795 8.3125 14.8125 C6.10689651 9.69684171 2.84983008 5.96878551 -1 2 C-0.67 1.34 -0.34 0.68 0 0 Z " fill="#B9AFDC" transform="translate(101,334)"/>
<path d="M0 0 C6.45997556 2.84998922 10.26991 9.70669393 13 16 C13.125 19.25 13.125 19.25 13 22 C11.26763052 19.40144578 9.96469732 16.93239121 8.625 14.125 C6.09412546 9.01114468 3.14010206 4.93309695 -1 1 C-0.67 0.67 -0.34 0.34 0 0 Z " fill="#C4BCE0" transform="translate(296,446)"/>
<path d="M0 0 C0.66 0 1.32 0 2 0 C2.33 7.26 2.66 14.52 3 22 C2.01 22.33 1.02 22.66 0 23 C0 15.41 0 7.82 0 0 Z " fill="#E3DDF3" transform="translate(365,432)"/>
<path d="M0 0 C0.33 0 0.66 0 1 0 C1.13277344 0.88042969 1.26554687 1.76085937 1.40234375 2.66796875 C1.57894531 3.82941406 1.75554687 4.99085938 1.9375 6.1875 C2.11152344 7.33605469 2.28554687 8.48460937 2.46484375 9.66796875 C2.91379313 12.46325212 3.42082162 15.22933586 4 18 C3.34 18 2.68 18 2 18 C-1.46505172 11.7629069 -1.04350941 6.95253862 0 0 Z " fill="#B7ABE1" transform="translate(85,342)"/>
<path d="M0 0 C3.79062273 4.82442893 5.28418033 7.74803275 5 14 C3.32411859 11.48617788 2.05969689 9.17052712 0.8125 6.4375 C0.44769531 5.65246094 0.08289063 4.86742187 -0.29296875 4.05859375 C-0.52628906 3.37925781 -0.75960938 2.69992187 -1 2 C-0.67 1.34 -0.34 0.68 0 0 Z " fill="#B8ADDD" transform="translate(304,454)"/>
<path d="M0 0 C0.33 0 0.66 0 1 0 C1.33 3.96 1.66 7.92 2 12 C-1 8 -1 8 -1.07421875 5.859375 C-0.53710938 2.9296875 -0.53710938 2.9296875 0 0 Z " fill="#BCB0E3" transform="translate(281,457)"/>
</svg>
